<svg xmlns="http://www.w3.org/2000/svg" viewBox="0 0 174.069 232.597"><g data-name="Layer 2"><g data-name="ART"><path d="M126.76 14.974c-6.144-4.741-16.58-1.512-23.311 7.211a27.403 27.403 0 00-3.52 6.007l-.044-.081C86.68 51.799 85.516 81.7 85.516 81.7l-39.223 100.97c32.233-13.98 51.25-82.329 51.25-82.329l-2.318-18.64c-.23-18.183 3.904-29.134 7.31-35.04 6.163 4.582 16.486 1.346 23.164-7.31 6.73-8.723 7.206-19.638 1.062-24.378zm-7.234 22.389c-3.723 4.825-9.496 6.612-12.896 3.99s-3.135-8.661.587-13.487c3.724-4.825 9.497-6.611 12.896-3.989 3.399 2.622 3.136 8.66-.587 13.486z" fill="#cedd3e"/><path fill="#d8e9f7" d="M81.07 102.842l-29.285 76.856-5.492 2.972 29.599-74.863 5.178-4.965z"/><path d="M126.76 14.974c-6.144-4.741-16.58-1.512-23.311 7.211a27.403 27.403 0 00-3.52 6.007l-.044-.081C86.68 51.799 85.516 81.7 85.516 81.7l-16.766 43.16c7.656-2.11 15.465-3.967 22.369-5.488 4.205-11.056 6.425-19.03 6.425-19.03l-2.32-18.641c-.23-18.183 3.905-29.134 7.312-35.04 6.162 4.582 16.485 1.346 23.163-7.31 6.73-8.723 7.206-19.638 1.062-24.378zm-7.234 22.389c-3.723 4.825-9.496 6.612-12.896 3.99s-3.135-8.661.587-13.487c3.724-4.825 9.497-6.611 12.896-3.989 3.399 2.622 3.136 8.66-.587 13.486z" fill="#b5c933"/><path d="M46.294 184.17a1.5 1.5 0 01-1.398-2.043L84.03 81.385C84.188 78.381 86 49.941 98.574 27.38a1.438 1.438 0 01.19-.265 28.91 28.91 0 013.498-5.846c7.223-9.364 18.625-12.72 25.415-7.483 6.789 5.239 6.434 17.119-.79 26.482-6.764 8.768-16.87 12.258-23.805 8.516-3.172 6.071-6.555 16.426-6.358 32.815l2.308 18.558a1.511 1.511 0 01-.043.588 264.939 264.939 0 01-13.624 36.153c-11.816 25.337-24.76 41.2-38.474 47.148a1.486 1.486 0 01-.597.124zM100.94 29.3C88.298 52.335 87.027 81.465 87.016 81.76a1.52 1.52 0 01-.101.485l-37.812 97.338c28.174-16.117 45.58-74.735 46.915-79.359l-2.282-18.337a1.602 1.602 0 01-.011-.167c-.234-18.427 3.956-29.644 7.512-35.808a1.501 1.501 0 012.195-.454c5.485 4.08 14.944.931 21.08-7.022 6.214-8.055 6.811-18.047 1.333-22.275-5.48-4.227-14.993-1.114-21.208 6.94a25.937 25.937 0 00-3.327 5.679 1.486 1.486 0 01-.369.52zm9.403 14.74a7.457 7.457 0 01-4.63-1.5 8.258 8.258 0 01-2.96-7.17 15.13 15.13 0 013.276-8.42 15.128 15.128 0 017.314-5.304 8.25 8.25 0 017.685 1.044c4.05 3.123 3.908 10.116-.315 15.589-2.848 3.69-6.835 5.76-10.37 5.76zm6.018-19.872a7.23 7.23 0 00-2.132.343 12.12 12.12 0 00-5.825 4.272 12.13 12.13 0 00-2.653 6.718 5.366 5.366 0 001.795 4.664c2.69 2.074 7.633.375 10.792-3.718 3.157-4.093 3.55-9.305.858-11.382a4.557 4.557 0 00-2.835-.897zm3.164 13.195z" fill="#3e4147"/><path d="M21.105 1.5s-47.754 52.062 5.797 107.692a69.476 69.476 0 0014.246 11.236c18.598 11.211 71.529 48.977 36.364 98.162 0 0-10.248 12.35-21.267 12.504 0 0 31.477 1.731 43.257-42.567 0 0 8.181-43.986-33.529-72.225 0 0-83.229-38.402-44.868-114.802z" fill="#b78d43"/><path d="M56.544 232.597a9.37 9.37 0 01-.38-.006 1.5 1.5 0 01.06-2.998c9.899-.137 19.477-11.19 20.102-11.923 9.831-13.772 13.365-27.764 10.508-41.592-5.617-27.177-34.362-47.073-46.461-54.365a71.113 71.113 0 01-14.552-11.481C-2.324 80.994-2.412 52.695 2.471 34.104A86.054 86.054 0 0120 .487a1.5 1.5 0 012.446 1.686C11.783 23.41 9.688 43.65 16.22 62.335c12.085 34.572 50 52.428 50.382 52.604a1.514 1.514 0 01.211.12c42.039 28.461 34.248 73.293 34.164 73.742a1.527 1.527 0 01-.026.112c-11.25 42.31-40.704 43.684-44.407 43.684zm-42.3-218.796A84.043 84.043 0 005.342 34.98c-6.765 25.92.852 50.538 22.64 73.172a68.09 68.09 0 0013.939 10.992 143.186 143.186 0 0126.484 20.405c11.642 11.567 18.83 23.653 21.365 35.922 3.039 14.696-.676 29.497-11.039 43.991-.021.03-.043.059-.066.086a47.301 47.301 0 01-5.49 5.418c8.913-5.003 19.154-15.361 24.86-36.762.285-1.692 6.836-43.68-32.81-70.596-2.394-1.146-39.656-19.465-51.83-54.263-5.466-15.62-5.174-32.235.847-49.544z" fill="#3e4147"/><path d="M5.336 6.186s-.193 73.966 58.018 125.386c0 0 51.411 26.182 24.132 73.137a38.462 38.462 0 01-23.203 18.156c-9.548 2.517-21.648 1.732-31.86-11.477 0 0 .338.262.966.687 17.207 11.645 40.738 3.263 47.069-16.526 4.512-14.104 6.065-34.763-14.485-49.738 0 0-78.436-59.23-60.637-139.625z" fill="#906e2d"/><path d="M55.934 225.49c-7.827 0-16.815-2.988-24.697-13.185a1.5 1.5 0 012.106-2.102c.02.016.329.253.886.629a29.153 29.153 0 0026.1 3.414 29.651 29.651 0 0018.7-19.155c4.487-14.024 5.71-33.748-13.94-48.068a195.935 195.935 0 01-37.338-40.017C11.718 84.081-5.44 47.923 3.872 5.862a1.5 1.5 0 012.965.328c-.002.732.503 73.785 57.372 124.135 2.372 1.243 24.477 13.339 30.993 35.44 3.718 12.61 1.559 25.966-6.419 39.697a39.698 39.698 0 01-24.118 18.853 34.32 34.32 0 01-8.731 1.176zm-15.708-8.33c6.795 5.182 14.722 6.614 23.673 4.255a36.718 36.718 0 0022.29-17.46c7.543-12.983 9.609-25.54 6.141-37.323-6.363-21.62-29.425-33.605-29.657-33.724a1.462 1.462 0 01-.312-.212c-30.34-26.8-44.634-59.755-51.285-82.682a192.822 192.822 0 01-6.295-30.93C1.203 54.672 16.124 85.126 30.16 105.215a192.782 192.782 0 0036.718 39.399c21.076 15.36 19.798 36.426 15.01 51.391a32.622 32.622 0 01-20.576 21.076 32.174 32.174 0 01-21.085.08z" fill="#3e4147"/><path d="M24.263 15.452s-26.501 57.976 51.493 99.45c8.508 4.525 15.268 11.807 20.81 19.69 6.49 9.23 12.638 22.024 12.04 36.902a43.098 43.098 0 01-13.467 29.667c-6.891 6.466-17.028 11.793-29.166 5.563 0 0-16.618-9.493-10.771-24.128 0 0 8.811 20.445 23.291 12.39a21.117 21.117 0 0010.12-14.11c2.27-10.425 1.974-29.484-23.382-44.28a101.348 101.348 0 01-27.791-23.495C20.46 92.178 1.5 52.07 24.263 15.452z" fill="#b78d43"/><path d="M76.782 210.993a25.015 25.015 0 01-11.494-2.934 31.81 31.81 0 01-8.057-6.964c-4.843-5.946-6.027-12.535-3.421-19.055a1.499 1.499 0 011.37-.943h.022a1.5 1.5 0 011.377.904c.045.103 4.528 10.293 11.938 12.81a11.107 11.107 0 009.247-1.136 19.615 19.615 0 009.384-13.119c4.947-22.724-12.082-36.484-22.672-42.663a102.662 102.662 0 01-28.202-23.847c-6.095-7.511-17.03-23.156-21.787-43.544C9.741 50.158 12.602 31.37 22.99 14.66a1.5 1.5 0 012.639 1.414 63.858 63.858 0 00-3.36 33.472c4.063 25.199 22.802 47.34 54.192 64.033 7.702 4.095 14.68 10.686 21.334 20.151 8.682 12.348 12.823 25.073 12.312 37.824a44.847 44.847 0 01-13.94 30.7c-6.19 5.807-12.75 8.739-19.384 8.739zM55.626 186.63c-.673 4.29.625 8.483 3.88 12.506a29.328 29.328 0 007.212 6.286c9.281 4.76 18.52 2.97 27.395-5.355a41.826 41.826 0 0012.994-28.634c.486-12.077-3.473-24.181-11.768-35.978-6.376-9.07-13.012-15.359-20.287-19.228-22.54-11.985-50.511-33.23-55.772-66.368a69.779 69.779 0 01-.258-20.124C14.637 42.164 14.09 55.59 17.408 69.82c4.62 19.803 15.263 35.024 21.196 42.335A99.65 99.65 0 0065.987 135.3c26.313 15.353 26.389 35.344 24.092 45.894a22.613 22.613 0 01-10.856 15.101 13.982 13.982 0 01-11.681 1.351c-5.709-1.943-9.758-7.388-11.916-11.017z" fill="#3e4147"/><path d="M146.094 63.584c-8.764 6.536-12.167 16.805-7.687 23.04-5.96 3.31-16.978 7.266-35.154 6.74l-18.6-2.623s-68.65 17.9-83.153 49.9l101.595-37.57s29.917-.677 53.818-13.493l-.08-.046a27.404 27.404 0 006.063-3.421c8.832-6.587 12.23-16.97 7.59-23.19s-15.56-5.925-24.392.663zm15.382 5.837c2.566 3.442.686 9.185-4.2 12.83s-10.926 3.808-13.493.366c-2.566-3.44-.686-9.184 4.2-12.828 4.885-3.645 10.926-3.809 13.493-.368z" fill="#cedd3e"/><path d="M100.875 102.844l-6.428.509a16.6 16.6 0 00-4.12.862L5.938 133.432a.5.5 0 00-.266.217l-3.445 5.773a.5.5 0 00.604.727l98.257-36.336a.5.5 0 00-.213-.97z" fill="#d8e9f7"/><path d="M1.5 142.141a1.5 1.5 0 01-1.366-2.119c6.17-13.615 22.243-26.3 47.77-37.7a264.87 264.87 0 0136.37-13.032 1.534 1.534 0 01.588-.035l18.518 2.612c16.386.462 26.793-2.75 32.915-5.823-3.63-6.994.026-17.044 8.902-23.663 9.483-7.073 21.365-7.23 26.491-.357 2.544 3.41 3.07 7.964 1.48 12.821a26.14 26.14 0 01-9.376 12.468 28.907 28.907 0 01-5.916 3.41 1.3 1.3 0 01-.254.177c-22.763 12.205-51.23 13.553-54.235 13.662L2.02 142.048a1.505 1.505 0 01-.52.093zM84.746 92.27c-4.644 1.259-63.543 17.714-80.112 45.614l97.94-36.22a1.507 1.507 0 01.487-.092c.293-.007 29.49-.815 52.72-13.09a1.354 1.354 0 01.486-.338 25.94 25.94 0 005.732-3.234 23.141 23.141 0 008.318-10.997c1.278-3.904.91-7.489-1.033-10.095-4.138-5.547-14.138-5.111-22.294.969-8.05 6.005-11.355 15.409-7.365 20.964a1.5 1.5 0 01-.49 2.186c-6.219 3.454-17.487 7.47-35.925 6.927a1.376 1.376 0 01-.167-.014zm64.633-5.674a8.164 8.164 0 01-6.798-3.08c-3.058-4.1-1.036-10.797 4.505-14.928a15.127 15.127 0 018.472-3.138 8.275 8.275 0 017.12 3.076 8.259 8.259 0 01.919 7.701A16.006 16.006 0 01149.7 86.59a12.15 12.15 0 01-.322.005zm6.497-18.151a9.71 9.71 0 00-.236.003 12.13 12.13 0 00-6.761 2.544c-4.144 3.09-5.927 8.004-3.894 10.73a5.432 5.432 0 004.634 1.87 13.021 13.021 0 0011.126-8.298 5.366 5.366 0 00-.472-4.975 5.271 5.271 0 00-4.397-1.874z" fill="#3e4147"/><circle cx="87.031" cy="99.542" r="2.816" fill="#4495d7"/><path d="M87.031 103.141a3.6 3.6 0 113.599-3.6 3.604 3.604 0 01-3.599 3.6zm0-5.632a2.033 2.033 0 102.032 2.033 2.035 2.035 0 00-2.032-2.033z" fill="#3e4147"/></g></g></svg>
